<svg id="Layer_1" data-name="Layer 1" xmlns="http://www.w3.org/2000/svg" viewBox="0 0 1540 240"><defs><style>.cls-1{fill:#fff;}</style></defs><title>Artboard 1</title><path class="cls-1" d="M496.92,139.79c-67,0-120.94-23.53-120.94-53.57s53.11-54,120.93-54,120.93,24.1,120.93,53.1h-7.71c0-26-51.85-45.39-113.22-45.39S383.69,61.13,383.69,86s51.23,46.09,113.23,46.09Z"/><path class="cls-1" d="M496.91,239.12C429.1,239.12,376,216.29,376,185.29h7.71c0,24,51.85,46.13,113.22,46.13s113.23-20.87,113.23-45.73S557.92,140,496.92,140v-7.71c67,0,120.92,23.39,120.92,53.43S564.72,239.12,496.91,239.12Z"/><path class="cls-1" d="M1306.42,135.39h-7.71c0-55,65.93-103.06,147-103.06,33.83,0,66.84,8.35,93,23.32l-3.83,6.74c-25-14.31-56.61-22.39-89.12-22.39C1368.89,40,1306.42,82.39,1306.42,135.39Z"/><path class="cls-1" d="M1445.68,238.89c-81,0-147-46.5-147-103.5h7.71c0,54,62.47,95.8,139.26,95.8,32.51,0,64.15-7.77,89.12-22.08l3.83,6.63C1512.52,230.7,1479.51,238.89,1445.68,238.89Z"/><path class="cls-1" d="M752.37,239.11v-7.71c92,0,168.6-42.84,168.6-95.49s-76.6-95.49-168.6-95.49V32.73c48,0,90.06,10.51,123.2,29.61,33.82,19.48,52.11,45.61,52.11,73.58S909.55,190,875.73,209.5C842.59,228.6,800.37,239.11,752.37,239.11Z"/><polygon class="cls-1" points="752.55 40.44 721.53 40.35 690.51 40.26 690.52 36.4 690.54 32.55 721.55 32.64 752.58 32.73 752.56 36.58 752.55 40.44"/><polygon class="cls-1" points="690.48 239.32 686.63 239.32 682.77 239.32 682.77 135.96 682.77 32.6 686.63 32.6 690.48 32.6 690.48 135.96 690.48 239.32"/><polygon class="cls-1" points="752.51 231.44 721.49 231.53 690.47 231.62 690.48 235.47 690.49 239.32 721.51 239.23 752.53 239.15 752.52 235.29 752.51 231.44"/><polyline class="cls-1" points="8.37 39.96 8.37 239.12 1.37 239.12 1.37 39.96"/><rect class="cls-1" x="8.37" y="119.39" width="119" height="7.63"/><rect class="cls-1" x="1.37" y="32.33" width="237.61" height="7.63"/><polyline class="cls-1" points="310.98 32.58 310.98 239.12 303.98 239.12 303.98 32.58"/><polygon class="cls-1" points="1227.37 119.8 1227.37 179.42 1227.37 232.39 1147.37 232.39 1147.37 162.29 1147.37 155.39 1087.37 155.39 1087.37 162.29 1087.37 232.39 999.37 232.39 999.37 239.39 1087.46 239.39 1087.46 239.39 1094.37 239.39 1094.37 162.39 1140.37 162.39 1140.37 239.39 1147.46 239.39 1147.46 239.39 1227.46 239.39 1227.46 239.39 1230.46 239.39 1233.37 239.39 1233.37 177.34 1233.37 115.63 1227.37 119.8"/><polygon class="cls-1" points="1115.61 32.08 1115.37 32.37 1115.37 32.39 1112.91 32.39 1110.53 32.39 1110.51 32.36 1110.47 32.39 1110.37 32.39 1110.37 32.09 1051.33 73.8 992.48 115.45 992.37 115.39 992.37 177.32 992.37 239.39 995.43 239.39 999.37 239.39 999.37 179.4 999.37 119.61 1057.08 78.98 1113.06 39.56 1169.3 78.99 1227.45 119.61 1233.45 115.63 1174.53 73.86 1115.61 32.08"/><rect class="cls-1" x="1109.56" y="0.61" width="7" height="32.47"/><rect class="cls-1" x="1109.56" y="0.39" width="7" height="26.88" transform="translate(1126.89 -1099.23) rotate(90)"/></svg>